<svg width="34" height="34" viewBox="0 0 34 34" fill="none" xmlns="http://www.w3.org/2000/svg">
<rect width="34" height="34" fill="white"/>
<rect x="-1295.5" y="-950.5" width="1439" height="1517" fill="#EBEAE6"/>
<rect x="-1295.5" y="-950.5" width="1439" height="1517" stroke="black"/>
<circle cx="17" cy="17" r="17" fill="black"/>
<path fill-rule="evenodd" clip-rule="evenodd" d="M11.1967 12.1967C11.478 11.9154 11.8596 11.7574 12.2574 11.7574C12.6552 11.7574 13.0367 11.9154 13.3181 12.1967L16.5 15.3787L19.682 12.1967C19.9633 11.9154 20.3449 11.7574 20.7427 11.7574C21.1405 11.7574 21.522 11.9154 21.8033 12.1967C22.0846 12.478 22.2427 12.8595 22.2427 13.2574C22.2427 13.6552 22.0846 14.0367 21.8033 14.318L18.6214 17.5L21.8033 20.682C22.0846 20.9633 22.2427 21.3448 22.2427 21.7426C22.2427 22.1405 22.0846 22.522 21.8033 22.8033C21.522 23.0846 21.1405 23.2426 20.7427 23.2426C20.3449 23.2426 19.9633 23.0846 19.682 22.8033L16.5 19.6213L13.3181 22.8033C13.0367 23.0846 12.6552 23.2426 12.2574 23.2426C11.8596 23.2426 11.478 23.0846 11.1967 22.8033C10.9154 22.522 10.7574 22.1405 10.7574 21.7426C10.7574 21.3448 10.9154 20.9633 11.1967 20.682L14.3787 17.5L11.1967 14.318C10.9154 14.0367 10.7574 13.6552 10.7574 13.2574C10.7574 12.8595 10.9154 12.478 11.1967 12.1967Z" fill="#EBEAE6"/>
</svg>
