<svg width="60" height="60" viewBox="0 0 60 60" fill="none" xmlns="http://www.w3.org/2000/svg">
<rect width="60" height="60" fill="white"/>
<rect x="-570.5" y="-2780.5" width="1439" height="5732" fill="#EBEAE6"/>
<rect x="-570.5" y="-2780.5" width="1439" height="5732" stroke="black"/>
<rect x="-34" y="-43" width="366" height="308" rx="20" fill="#F5F4F0"/>
<circle cx="30" cy="30" r="30" fill="#0E0E0E"/>
<path fill-rule="evenodd" clip-rule="evenodd" d="M19 20.45C19 18.4443 20.6259 17 22.6316 17H32.435C34.4407 17 35.885 18.4443 35.885 20.45V27.8742C39.3201 28.4505 42 31.438 42 35.0369C42 39.0482 39.1113 42.3 35.1 42.3C33.615 42.3 32.2254 41.9149 31.075 41.15H27.4737H22.45C20.4443 41.15 19 39.7057 19 37.7V20.45ZM27.8724 34.2506C27.86 34.2502 27.8475 34.25 27.835 34.25H25.535C24.8999 34.25 24.385 34.7649 24.385 35.4C24.385 36.0351 24.8999 36.55 25.535 36.55H27.835C27.9027 36.55 27.9689 36.5442 28.0334 36.533C28.2433 37.37 28.5972 38.1796 28.985 38.85H27.4737H22.45C21.7814 38.85 21.3 38.3686 21.3 37.7V20.45C21.3 19.7814 21.7814 19.3 22.45 19.3H24.75H25.9H29.35H32.435C33.1036 19.3 33.585 19.7814 33.585 20.45V27.8742C30.4035 28.4079 28.1829 31.0101 27.8724 34.2506ZM34.7368 30.1948C32.0626 30.1948 30.135 32.3627 30.135 35.0369C30.135 37.7111 32.0608 40 34.735 40C37.4092 40 39.5789 37.7111 39.5789 35.0369C39.5789 32.3627 37.4111 30.1948 34.7368 30.1948ZM36.7914 32.1384C37.3893 32.4374 37.6317 33.1645 37.3327 33.7625L35.5169 37.3941C35.3342 37.7595 34.9796 38.0081 34.5738 38.0552C34.168 38.1023 33.7658 37.9415 33.5043 37.6277L32.2937 36.175C31.8657 35.6614 31.9351 34.8981 32.4487 34.4701C32.9623 34.0421 33.7256 34.1115 34.1536 34.6251L34.1792 34.6558L35.1673 32.6798C35.4663 32.0818 36.1934 31.8394 36.7914 32.1384Z" fill="#F7EA82"/>
</svg>
