<svg width="60" height="60" viewBox="0 0 60 60" fill="none" xmlns="http://www.w3.org/2000/svg">
<rect width="60" height="60" fill="white"/>
<rect x="-570.5" y="-2406.5" width="1439" height="5732" fill="#EBEAE6"/>
<rect x="-570.5" y="-2406.5" width="1439" height="5732" stroke="black"/>
<rect x="-34" y="-43" width="366" height="308" rx="20" fill="#F5F4F0"/>
<circle cx="30" cy="30" r="30" fill="#0E0E0E"/>
<path fill-rule="evenodd" clip-rule="evenodd" d="M37.0885 17.7747C36.068 16.7418 34.4134 16.7418 33.3928 17.7747L18.7425 32.603C18.3792 32.9707 18.1311 33.4385 18.0291 33.9482L17.0521 38.8298C16.8781 39.6989 17.146 40.5983 17.7654 41.2253C18.3849 41.8522 19.2735 42.1233 20.1321 41.9473L24.9552 40.9584C25.4587 40.8552 25.921 40.604 26.2842 40.2364L40.9346 25.4081C41.9551 24.3751 41.9551 22.7004 40.9346 21.6675L37.0885 17.7747ZM20.3446 35.7012L20.1765 36.5408L19.6133 39.355L22.3937 38.7849L23.2232 38.6148L20.3446 35.7012ZM21.7087 33.3413L25.5548 37.2341L35.4732 27.1953L31.6271 23.3025L21.7087 33.3413ZM39.0868 23.5378L37.321 25.325L33.4749 21.4322L35.2407 19.645L37.0885 21.5153L37.2389 21.6675L39.0868 23.5378ZM42.7559 35.6644C42.929 35.8199 43 36.0257 43 36.2291C43 36.6728 42.6273 36.9274 42.2102 37.0138C41.6883 37.122 41.2983 37.3305 41.0438 37.6079C40.8129 37.8595 40.6843 38.1776 40.6781 38.5525C41.4441 38.7705 42.1978 39.3711 42.1978 40.2376V40.2757C42.1978 40.7622 42.0032 41.1951 41.6521 41.5067C41.3007 41.8188 40.8031 42 40.2175 42C39.5594 42 39.0229 41.7754 38.6554 41.3643C38.2921 40.9579 38.1072 40.3847 38.1072 39.7031V39.6267C38.1072 38.2 38.5967 37.1257 39.4393 36.3839C40.1227 35.7822 41.1439 35.4211 41.9954 35.4211C42.3245 35.4211 42.5815 35.5077 42.7559 35.6644ZM40.4994 38.6723C41.2582 38.8441 42.0171 39.4168 42.0171 40.2376V40.2757C42.0171 41.1686 41.3084 41.8346 40.233 41.8409C41.308 41.8343 42.0164 41.1684 42.0164 40.2757V40.2376C42.0164 39.4168 41.2575 38.8441 40.4987 38.6724C40.4553 37.7561 41.0624 37.0881 42.1682 36.859C42.5367 36.7827 42.8186 36.5727 42.8186 36.2291C42.8186 35.8855 42.5801 35.5801 41.9947 35.5801L41.9954 35.5801C42.5808 35.5801 42.8193 35.8855 42.8193 36.2291C42.8193 36.5727 42.5375 36.7827 42.1689 36.859C41.0631 37.0881 40.456 37.7561 40.4994 38.6723ZM37.2488 35.6644C37.4219 35.8199 37.4928 36.0257 37.4928 36.2291C37.4928 36.6728 37.1202 36.9274 36.7031 37.0138C36.1811 37.122 35.7911 37.3305 35.5366 37.6079C35.3058 37.8595 35.1772 38.1776 35.171 38.5525C35.937 38.7705 36.6906 39.3711 36.6906 40.2376V40.2757C36.6906 40.7622 36.496 41.1951 36.145 41.5067C35.7936 41.8188 35.296 42 34.7104 42C34.0522 42 33.5157 41.7754 33.1482 41.3643C32.7849 40.9579 32.6 40.3847 32.6 39.7031V39.6267C32.6 38.2 33.0895 37.1257 33.9321 36.3839C34.6155 35.7822 35.6368 35.4211 36.4883 35.4211C36.8173 35.4211 37.0743 35.5077 37.2488 35.6644ZM34.9922 38.6723C35.7511 38.8441 36.5099 39.4168 36.5099 40.2376V40.2757C36.5099 41.1686 35.8013 41.8346 34.7259 41.8409C35.8009 41.8343 36.5092 41.1684 36.5092 40.2757V40.2376C36.5092 39.4168 35.7504 38.8441 34.9915 38.6724C34.9481 37.7561 35.5552 37.0881 36.661 36.859C37.0296 36.7827 37.3115 36.5727 37.3115 36.2291C37.3115 35.8855 37.073 35.5801 36.4875 35.5801L36.4883 35.5801C37.0737 35.5801 37.3122 35.8855 37.3122 36.2291C37.3122 36.5727 37.0303 36.7827 36.6617 36.859C35.5559 37.0881 34.9489 37.7561 34.9922 38.6723Z" fill="#F7EA82"/>
</svg>
