<svg width="60" height="60" viewBox="0 0 60 60" fill="none" xmlns="http://www.w3.org/2000/svg">
<rect width="60" height="60" fill="white"/>
<rect x="-522.5" y="-1468.5" width="1439" height="2262" fill="#EBEAE6"/>
<rect x="-522.5" y="-1468.5" width="1439" height="2262" stroke="black"/>
<rect x="-90" y="-34" width="240" height="213" rx="20" fill="#F5F4F0"/>
<circle cx="30" cy="30" r="30" fill="#0E0E0E"/>
<path fill-rule="evenodd" clip-rule="evenodd" d="M39.9757 24.736C39.9755 25.2883 39.5276 25.7359 38.9753 25.7357C38.423 25.7355 37.9755 25.2877 37.9757 24.7354L37.9761 23.4195L30.7084 30.7061C30.3363 31.0792 29.7384 31.0995 29.3419 30.7525L26.0459 27.8686L21.7071 32.2071C21.3165 32.5976 20.6834 32.5976 20.2929 32.207C19.9024 31.8165 19.9024 31.1833 20.2929 30.7928L25.2933 25.7928C25.6656 25.4206 26.2627 25.4007 26.6589 25.7474L29.9539 28.6305L36.5671 22L35.0013 22C34.449 22 34.0013 21.5523 34.0013 21C34.0013 20.4477 34.449 20 35.0013 20H38.9769C39.2421 20 39.4965 20.1054 39.6841 20.293C39.8716 20.4806 39.9769 20.7351 39.9769 21.0003L39.9757 24.736ZM35.0002 31C35.0002 30.4477 35.448 30 36.0002 30H39.0002C39.5525 30 40.0002 30.4477 40.0002 31C40.0002 31.5523 39.5525 32 39.0002 32H36.0002C35.448 32 35.0002 31.5523 35.0002 31ZM28.5002 34C27.948 34 27.5002 34.4477 27.5002 35C27.5002 35.5523 27.948 36 28.5002 36H31.5002C32.0525 36 32.5002 35.5523 32.5002 35C32.5002 34.4477 32.0525 34 31.5002 34H28.5002ZM20.0002 39C20.0002 38.4477 20.448 38 21.0002 38H24.0002C24.5525 38 25.0002 38.4477 25.0002 39C25.0002 39.5523 24.5525 40 24.0002 40H21.0002C20.448 40 20.0002 39.5523 20.0002 39ZM27.5002 39C27.5002 38.4477 27.948 38 28.5002 38H31.5002C32.0525 38 32.5002 38.4477 32.5002 39C32.5002 39.5523 32.0525 40 31.5002 40H28.5002C27.948 40 27.5002 39.5523 27.5002 39ZM35.0002 39C35.0002 38.4477 35.448 38 36.0002 38H39.0002C39.5525 38 40.0002 38.4477 40.0002 39C40.0002 39.5523 39.5525 40 39.0002 40H36.0002C35.448 40 35.0002 39.5523 35.0002 39ZM36.0002 34C35.448 34 35.0002 34.4477 35.0002 35C35.0002 35.5523 35.448 36 36.0002 36H39.0002C39.5525 36 40.0002 35.5523 40.0002 35C40.0002 34.4477 39.5525 34 39.0002 34H36.0002Z" fill="#F7EA82"/>
</svg>
