<svg width="60" height="60" viewBox="0 0 60 60" fill="none" xmlns="http://www.w3.org/2000/svg">
<rect width="60" height="60" fill="white"/>
<g clip-path="url(#clip0_0_1)">
<rect x="-135" y="-1507" width="1440" height="2932" fill="#EBEAE6"/>
<rect x="-34" y="-43" width="366" height="308" rx="20" fill="#F5F4F0"/>
<circle cx="30" cy="30" r="30" fill="#0E0E0E"/>
<path fill-rule="evenodd" clip-rule="evenodd" d="M27.1667 20.4C26.5223 20.4 26 20.9373 26 21.6H33C33 20.9373 32.4777 20.4 31.8333 20.4H27.1667ZM22.5 21.6H23.6667C23.6667 19.6118 25.2337 18 27.1667 18H31.8333C33.7663 18 35.3333 19.6118 35.3333 21.6H36.5C38.433 21.6 40 23.2118 40 25.2V38.4C40 40.3882 38.433 42 36.5 42H22.5C20.567 42 19 40.3882 19 38.4V25.2C19 23.2118 20.567 21.6 22.5 21.6ZM22.5 24C21.8557 24 21.3333 24.5373 21.3333 25.2V38.4C21.3333 39.0627 21.8557 39.6 22.5 39.6H36.5C37.1443 39.6 37.6667 39.0627 37.6667 38.4V25.2C37.6667 24.5373 37.1443 24 36.5 24H22.5ZM30.6667 27.6C30.6667 26.9373 30.1443 26.4 29.5 26.4C28.8557 26.4 28.3333 26.9373 28.3333 27.6V32.5714C28.3333 32.959 28.5153 33.3227 28.8219 33.5479L33.4886 36.9765C34.0129 37.3617 34.7415 37.2368 35.116 36.6975C35.4905 36.1582 35.3691 35.4087 34.8448 35.0235L30.6667 31.9539V27.6Z" fill="#F7EA82"/>
</g>
<rect x="-134.5" y="-1506.5" width="1439" height="2931" stroke="black"/>
<defs>
<clipPath id="clip0_0_1">
<rect x="-135" y="-1507" width="1440" height="2932" fill="white"/>
</clipPath>
</defs>
</svg>
