<svg width="60" height="60" viewBox="0 0 60 60" fill="none" xmlns="http://www.w3.org/2000/svg">
<rect width="60" height="60" fill="white"/>
<rect x="-1007.5" y="-2780.5" width="1439" height="5732" fill="#EBEAE6"/>
<rect x="-1007.5" y="-2780.5" width="1439" height="5732" stroke="black"/>
<rect x="-34" y="-43" width="366" height="308" rx="20" fill="#F5F4F0"/>
<circle cx="30" cy="30" r="30" fill="#0E0E0E"/>
<path fill-rule="evenodd" clip-rule="evenodd" d="M24.9393 19.9393C24.3536 20.5251 24.3536 21.4749 24.9393 22.0607C25.5251 22.6464 26.4749 22.6464 27.0607 22.0607L30.5 18.6213L33.9393 22.0607C34.5251 22.6464 35.4749 22.6464 36.0607 22.0607C36.6464 21.4749 36.6464 20.5251 36.0607 19.9393L31.5607 15.4393C31.2794 15.158 30.8978 15 30.5 15C30.1022 15 29.7206 15.158 29.4393 15.4393L24.9393 19.9393ZM23 37.5V31.5C23 27.3579 26.3579 24 30.5 24C34.6421 24 38 27.3579 38 31.5V37.5C38 41.6421 34.6421 45 30.5 45C26.3579 45 23 41.6421 23 37.5ZM26 37.5C26 39.9853 28.0147 42 30.5 42C32.9853 42 35 39.9853 35 37.5V31.5C35 29.0147 32.9853 27 30.5 27C28.0147 27 26 29.0147 26 31.5V37.5ZM30.5 30C31.3284 30 32 30.6716 32 31.5V33.75C32 34.5784 31.3284 35.25 30.5 35.25C29.6716 35.25 29 34.5784 29 33.75V31.5C29 30.6716 29.6716 30 30.5 30Z" fill="#F7EA82"/>
</svg>
