<svg width="60" height="60" viewBox="0 0 60 60" fill="none" xmlns="http://www.w3.org/2000/svg">
<rect width="60" height="60" fill="white"/>
<rect x="-1200.5" y="-1034.5" width="1439" height="4173" fill="#EBEAE6"/>
<rect x="-1200.5" y="-1034.5" width="1439" height="4173" stroke="black"/>
<rect x="-102" y="-34" width="240" height="213" rx="20" fill="#F5F4F0"/>
<circle cx="30" cy="30" r="30" fill="#0E0E0E"/>
<path fill-rule="evenodd" clip-rule="evenodd" d="M34.4027 18.6368C34.4027 18.2851 34.1175 18 33.7658 18C33.4141 18 33.129 18.2851 33.129 18.6368C33.129 18.8277 33.0271 19.072 32.818 19.2811C32.6088 19.4902 32.3646 19.5921 32.1737 19.5921C31.822 19.5921 31.5369 19.8772 31.5369 20.2289C31.5369 20.5807 31.822 20.8658 32.1737 20.8658C32.3646 20.8658 32.6088 20.9677 32.818 21.1768C33.0271 21.3859 33.129 21.6301 33.129 21.8211C33.129 22.1728 33.4141 22.4579 33.7658 22.4579C34.1175 22.4579 34.4027 22.1728 34.4027 21.8211C34.4027 21.6301 34.5045 21.3859 34.7137 21.1768C34.9228 20.9677 35.167 20.8658 35.3579 20.8658C35.7096 20.8658 35.9948 20.5807 35.9948 20.2289C35.9948 19.8772 35.7096 19.5921 35.3579 19.5921C35.1741 19.5921 34.9302 19.4893 34.7164 19.2729C34.5016 19.0555 34.4027 18.8098 34.4027 18.6368ZM33.7186 20.1817C33.7363 20.164 33.7539 20.1459 33.7712 20.1275C33.7841 20.1412 33.7972 20.1547 33.8103 20.168C33.8288 20.1868 33.8478 20.2054 33.8671 20.2237C33.8487 20.241 33.8307 20.2585 33.813 20.2762C33.7971 20.2921 33.7814 20.3082 33.7658 20.3247C33.7502 20.3082 33.7345 20.2921 33.7186 20.2762C33.7027 20.2603 33.6865 20.2445 33.6701 20.2289C33.6865 20.2134 33.7027 20.1976 33.7186 20.1817ZM39.4974 20.5474C39.8491 20.5474 40.1342 20.8325 40.1342 21.1842C40.1342 21.6639 40.3924 22.228 40.846 22.6872C41.2986 23.1453 41.8609 23.4132 42.3632 23.4132C42.7149 23.4132 43 23.6983 43 24.05C43 24.4017 42.7149 24.6868 42.3632 24.6868C41.8539 24.6868 41.2912 24.9479 40.8433 25.3959C40.3953 25.8438 40.1342 26.4065 40.1342 26.9158C40.1342 27.2675 39.8491 27.5526 39.4974 27.5526C39.1457 27.5526 38.8606 27.2675 38.8606 26.9158C38.8606 26.4065 38.5995 25.8438 38.1515 25.3959C37.7036 24.9479 37.1409 24.6868 36.6316 24.6868C36.2799 24.6868 35.9948 24.4017 35.9948 24.05C35.9948 23.6983 36.2799 23.4132 36.6316 23.4132C37.1409 23.4132 37.7036 23.1521 38.1515 22.7041C38.5995 22.2562 38.8606 21.6935 38.8606 21.1842C38.8606 20.8325 39.1457 20.5474 39.4974 20.5474ZM39.5055 23.0638C39.3697 23.2586 39.2168 23.4401 39.0522 23.6048C38.8908 23.7662 38.7132 23.9162 38.5228 24.05C38.7132 24.1838 38.8908 24.3338 39.0522 24.4952C39.2135 24.6566 39.3636 24.8342 39.4974 25.0246C39.6312 24.8342 39.7812 24.6566 39.9426 24.4952C40.1068 24.3311 40.2876 24.1787 40.4817 24.0432C40.2861 23.9043 40.1043 23.7487 39.9399 23.5823C39.7832 23.4236 39.6368 23.2497 39.5055 23.0638ZM33.129 25.0053C33.4807 25.0053 33.7658 25.2904 33.7658 25.6421C33.7658 25.9684 33.9443 26.3733 34.2786 26.7116C34.6117 27.0489 35.0149 27.2342 35.3579 27.2342C35.7096 27.2342 35.9948 27.5193 35.9948 27.8711C35.9948 28.2228 35.7096 28.5079 35.3579 28.5079C35.0078 28.5079 34.6044 28.6894 34.2758 29.0179C33.9473 29.3465 33.7658 29.7499 33.7658 30.1C33.7658 30.4517 33.4807 30.7368 33.129 30.7368C32.7773 30.7368 32.4921 30.4517 32.4921 30.1C32.4921 29.7499 32.3107 29.3465 31.9821 29.0179C31.6536 28.6894 31.2501 28.5079 30.9 28.5079C30.5483 28.5079 30.2632 28.2228 30.2632 27.8711C30.2632 27.5193 30.5483 27.2342 30.9 27.2342C31.2501 27.2342 31.6536 27.0527 31.9821 26.7242C32.3107 26.3956 32.4921 25.9922 32.4921 25.6421C32.4921 25.2904 32.7773 25.0053 33.129 25.0053ZM33.1359 27.3403C33.0564 27.4409 32.9716 27.536 32.8827 27.6248C32.7965 27.7111 32.7043 27.7936 32.607 27.8711C32.7043 27.9485 32.7965 28.031 32.8827 28.1173C32.969 28.2036 33.0515 28.2957 33.129 28.3931C33.2064 28.2957 33.2889 28.2036 33.3752 28.1173C33.4638 28.0287 33.5586 27.9442 33.6587 27.8649C33.5573 27.7835 33.4616 27.697 33.3725 27.6068C33.2899 27.5232 33.2107 27.4341 33.1359 27.3403Z" fill="#F7EA82"/>
<path fill-rule="evenodd" clip-rule="evenodd" d="M25.6316 31.4895H23.7789C23.2674 31.4895 22.8526 31.9301 22.8526 32.4737V33.4085V35.4263H23.7789C24.2905 35.4263 24.7053 35.867 24.7053 36.4105V36.4597V38.379V40.249C24.7053 40.2994 24.7206 40.3318 24.7317 40.3474H26.5314C26.5426 40.3318 26.5579 40.2994 26.5579 40.249V36.4246C26.5579 35.881 26.9726 35.4403 27.4842 35.4403H28.1018H28.4105V33.2119V32.4737C28.4105 31.9301 27.9958 31.4895 27.4842 31.4895H25.6316ZM22.8526 38.379V37.3947H21.9263C21.4147 37.3947 21 36.9541 21 36.4105V33.4085V32.4737C21 31.3644 21.5758 30.3979 22.4272 29.8933C21.8252 29.1255 21.4632 28.1379 21.4632 27.0605C21.4632 24.6145 23.3294 22.6316 25.6316 22.6316C27.9337 22.6316 29.8 24.6145 29.8 27.0605C29.8 28.1379 29.4379 29.1255 28.836 29.8933C29.6874 30.3979 30.2632 31.3644 30.2632 32.4737V33.2119V36.4246C30.2632 36.9681 29.8484 37.4088 29.3368 37.4088H28.4105V40.249C28.4105 41.3001 27.6622 42.3158 26.5579 42.3158H24.7053C23.601 42.3158 22.8526 41.3001 22.8526 40.249V38.379ZM25.6316 29.5211C26.9106 29.5211 27.9474 28.4194 27.9474 27.0605C27.9474 25.7016 26.9106 24.6 25.6316 24.6C24.3526 24.6 23.3158 25.7016 23.3158 27.0605C23.3158 28.4194 24.3526 29.5211 25.6316 29.5211Z" fill="#F7EA82"/>
</svg>
