<svg width="60" height="60" viewBox="0 0 60 60" fill="none" xmlns="http://www.w3.org/2000/svg">
<rect width="60" height="60" fill="white"/>
<rect x="-1007.5" y="-2406.5" width="1439" height="5732" fill="#EBEAE6"/>
<rect x="-1007.5" y="-2406.5" width="1439" height="5732" stroke="black"/>
<rect x="-34" y="-43" width="366" height="308" rx="20" fill="#F5F4F0"/>
<circle cx="30" cy="30" r="30" fill="#0E0E0E"/>
<path fill-rule="evenodd" clip-rule="evenodd" d="M18 31.75V21.75C18 19.6789 19.6789 18 21.75 18H39.25C41.3211 18 43 19.6789 43 21.75V31.75V34.25C43 36.3211 41.3211 38 39.25 38L34.25 38V40.5H35.5C36.1904 40.5 36.75 41.0596 36.75 41.75C36.75 42.4404 36.1904 43 35.5 43H33H28H25.5C24.8096 43 24.25 42.4404 24.25 41.75C24.25 41.0596 24.8096 40.5 25.5 40.5H26.75L26.75 38H21.75C19.6789 38 18 36.3211 18 34.25V31.75ZM29.25 38L29.25 40.5H31.75L31.75 38H29.25ZM20.5 33V34.25C20.5 34.9404 21.0596 35.5 21.75 35.5L39.25 35.5C39.9404 35.5 40.5 34.9404 40.5 34.25V33H20.5ZM40.5 30.5H20.5L20.5 21.75C20.5 21.0596 21.0596 20.5 21.75 20.5L39.25 20.5C39.9404 20.5 40.5 21.0596 40.5 21.75L40.5 30.5Z" fill="#F7EA82"/>
</svg>
