<svg width="60" height="60" viewBox="0 0 60 60" fill="none" xmlns="http://www.w3.org/2000/svg">
<rect width="60" height="60" fill="white"/>
<rect x="-1200.5" y="-1468.5" width="1439" height="2262" fill="#EBEAE6"/>
<rect x="-1200.5" y="-1468.5" width="1439" height="2262" stroke="black"/>
<rect x="-102" y="-34" width="240" height="213" rx="20" fill="#F5F4F0"/>
<circle cx="30" cy="30" r="30" fill="#0E0E0E"/>
<path fill-rule="evenodd" clip-rule="evenodd" d="M34.4031 18.6368C34.4031 18.2851 34.118 18 33.7663 18C33.4146 18 33.1295 18.2851 33.1295 18.6368C33.1295 18.8277 33.0276 19.072 32.8185 19.2811C32.6093 19.4902 32.3651 19.5921 32.1742 19.5921C31.8225 19.5921 31.5374 19.8772 31.5374 20.2289C31.5374 20.5807 31.8225 20.8658 32.1742 20.8658C32.3651 20.8658 32.6093 20.9677 32.8185 21.1768C33.0276 21.3859 33.1295 21.6301 33.1295 21.8211C33.1295 22.1728 33.4146 22.4579 33.7663 22.4579C34.118 22.4579 34.4031 22.1728 34.4031 21.8211C34.4031 21.6301 34.505 21.3859 34.7142 21.1768C34.9233 20.9677 35.1675 20.8658 35.3584 20.8658C35.7101 20.8658 35.9953 20.5807 35.9953 20.2289C35.9953 19.8772 35.7101 19.5921 35.3584 19.5921C35.1746 19.5921 34.9306 19.4893 34.7169 19.2729C34.5021 19.0555 34.4031 18.8098 34.4031 18.6368ZM33.7191 20.1817C33.7368 20.164 33.7543 20.1459 33.7717 20.1275C33.7846 20.1412 33.7976 20.1547 33.8108 20.168C33.8293 20.1868 33.8482 20.2054 33.8676 20.2237C33.8492 20.241 33.8312 20.2585 33.8135 20.2762C33.7976 20.2921 33.7819 20.3082 33.7663 20.3247C33.7507 20.3082 33.735 20.2921 33.7191 20.2762C33.7032 20.2603 33.687 20.2445 33.6706 20.2289C33.687 20.2134 33.7032 20.1976 33.7191 20.1817ZM39.4979 20.5474C39.8496 20.5474 40.1347 20.8325 40.1347 21.1842C40.1347 21.6639 40.3929 22.228 40.8465 22.6872C41.2991 23.1453 41.8614 23.4132 42.3637 23.4132C42.7154 23.4132 43.0005 23.6983 43.0005 24.05C43.0005 24.4017 42.7154 24.6868 42.3637 24.6868C41.8543 24.6868 41.2917 24.9479 40.8438 25.3959C40.3958 25.8438 40.1347 26.4065 40.1347 26.9158C40.1347 27.2675 39.8496 27.5526 39.4979 27.5526C39.1462 27.5526 38.861 27.2675 38.861 26.9158C38.861 26.4065 38.6 25.8438 38.152 25.3959C37.7041 24.9479 37.1414 24.6868 36.6321 24.6868C36.2804 24.6868 35.9953 24.4017 35.9953 24.05C35.9953 23.6983 36.2804 23.4132 36.6321 23.4132C37.1414 23.4132 37.7041 23.1521 38.152 22.7041C38.6 22.2562 38.861 21.6935 38.861 21.1842C38.861 20.8325 39.1462 20.5474 39.4979 20.5474ZM39.506 23.0638C39.3701 23.2586 39.2173 23.4401 39.0526 23.6048C38.8912 23.7662 38.7137 23.9162 38.5232 24.05C38.7137 24.1838 38.8912 24.3338 39.0526 24.4952C39.214 24.6566 39.3641 24.8342 39.4979 25.0246C39.6317 24.8342 39.7817 24.6566 39.9431 24.4952C40.1073 24.3311 40.2881 24.1787 40.4822 24.0432C40.2866 23.9043 40.1048 23.7487 39.9404 23.5823C39.7836 23.4236 39.6373 23.2497 39.506 23.0638ZM33.1295 25.0053C33.4812 25.0053 33.7663 25.2904 33.7663 25.6421C33.7663 25.9684 33.9448 26.3733 34.279 26.7116C34.6122 27.0489 35.0154 27.2342 35.3584 27.2342C35.7101 27.2342 35.9953 27.5193 35.9953 27.8711C35.9953 28.2228 35.7101 28.5079 35.3584 28.5079C35.0083 28.5079 34.6049 28.6894 34.2763 29.0179C33.9478 29.3465 33.7663 29.7499 33.7663 30.1C33.7663 30.4517 33.4812 30.7368 33.1295 30.7368C32.7777 30.7368 32.4926 30.4517 32.4926 30.1C32.4926 29.7499 32.3111 29.3465 31.9826 29.0179C31.6541 28.6894 31.2506 28.5079 30.9005 28.5079C30.5488 28.5079 30.2637 28.2228 30.2637 27.8711C30.2637 27.5193 30.5488 27.2342 30.9005 27.2342C31.2506 27.2342 31.6541 27.0527 31.9826 26.7242C32.3111 26.3956 32.4926 25.9922 32.4926 25.6421C32.4926 25.2904 32.7777 25.0053 33.1295 25.0053ZM33.1364 27.3403C33.0569 27.4409 32.9721 27.536 32.8832 27.6248C32.7969 27.7111 32.7048 27.7936 32.6074 27.8711C32.7048 27.9485 32.7969 28.031 32.8832 28.1173C32.9695 28.2036 33.052 28.2957 33.1295 28.3931C33.2069 28.2957 33.2894 28.2036 33.3757 28.1173C33.4643 28.0287 33.559 27.9442 33.6592 27.8649C33.5578 27.7835 33.4621 27.697 33.373 27.6068C33.2904 27.5232 33.2111 27.4341 33.1364 27.3403Z" fill="#F7EA82"/>
<path fill-rule="evenodd" clip-rule="evenodd" d="M25.6316 31.4895H23.7789C23.2674 31.4895 22.8526 31.9301 22.8526 32.4737V33.4085V35.4263H23.7789C24.2905 35.4263 24.7053 35.867 24.7053 36.4105V36.4597V38.379V40.249C24.7053 40.2994 24.7206 40.3318 24.7317 40.3474H26.5314C26.5426 40.3318 26.5579 40.2994 26.5579 40.249V36.4246C26.5579 35.881 26.9726 35.4403 27.4842 35.4403H28.1018H28.4105V33.2119V32.4737C28.4105 31.9301 27.9958 31.4895 27.4842 31.4895H25.6316ZM22.8526 38.379V37.3947H21.9263C21.4147 37.3947 21 36.9541 21 36.4105V33.4085V32.4737C21 31.3644 21.5758 30.3979 22.4272 29.8933C21.8252 29.1255 21.4632 28.1379 21.4632 27.0605C21.4632 24.6145 23.3294 22.6316 25.6316 22.6316C27.9337 22.6316 29.8 24.6145 29.8 27.0605C29.8 28.1379 29.4379 29.1255 28.836 29.8933C29.6874 30.3979 30.2632 31.3644 30.2632 32.4737V33.2119V36.4246C30.2632 36.9681 29.8484 37.4088 29.3368 37.4088H28.4105V40.249C28.4105 41.3001 27.6622 42.3158 26.5579 42.3158H24.7053C23.601 42.3158 22.8526 41.3001 22.8526 40.249V38.379ZM25.6316 29.5211C26.9106 29.5211 27.9474 28.4194 27.9474 27.0605C27.9474 25.7016 26.9106 24.6 25.6316 24.6C24.3526 24.6 23.3158 25.7016 23.3158 27.0605C23.3158 28.4194 24.3526 29.5211 25.6316 29.5211Z" fill="#F7EA82"/>
</svg>
