<svg width="60" height="60" viewBox="0 0 60 60" fill="none" xmlns="http://www.w3.org/2000/svg">
<rect width="60" height="60" fill="white"/>
<rect x="-133.5" y="-2406.5" width="1439" height="5732" fill="#EBEAE6"/>
<rect x="-133.5" y="-2406.5" width="1439" height="5732" stroke="black"/>
<rect x="-34" y="-43" width="366" height="308" rx="20" fill="#F5F4F0"/>
<circle cx="30" cy="30" r="30" fill="#0E0E0E"/>
<path fill-rule="evenodd" clip-rule="evenodd" d="M30.0287 19.8868C28.9873 19.8868 28.143 19.0083 28.143 17.9245C28.143 16.8408 28.9873 15.9623 30.0287 15.9623C31.0702 15.9623 31.9144 16.8408 31.9144 17.9245C31.9144 19.0083 31.0702 19.8868 30.0287 19.8868ZM32.6685 20.7274C33.3669 20.0151 33.8002 19.0225 33.8002 17.9245C33.8002 15.7571 32.1116 14 30.0287 14C27.9458 14 26.2573 15.7571 26.2573 17.9245C26.2573 19.0225 26.6906 20.0151 27.3889 20.7274C26.1372 21.6094 25.3145 23.1009 25.3145 24.7925V28.717C25.3145 29.2588 25.7366 29.6981 26.2573 29.6981C26.778 29.6981 27.2002 29.2588 27.2002 28.717V24.7925C27.2002 23.1669 28.4666 21.8491 30.0287 21.8491C31.5909 21.8491 32.8573 23.1669 32.8573 24.7925V28.717C32.8573 29.2588 33.2794 29.6981 33.8002 29.6981C34.3209 29.6981 34.743 29.2588 34.743 28.717V24.7925C34.743 23.1009 33.9203 21.6094 32.6685 20.7274Z" fill="#F7EA82"/>
<path fill-rule="evenodd" clip-rule="evenodd" d="M42.2856 35.5849C41.2441 35.5849 40.3999 34.7064 40.3999 33.6226C40.3999 32.5389 41.2441 31.6604 42.2856 31.6604C43.327 31.6604 44.1713 32.5389 44.1713 33.6226C44.1713 34.7064 43.327 35.5849 42.2856 35.5849ZM44.9254 36.4255C45.6237 35.7132 46.057 34.7206 46.057 33.6226C46.057 31.4552 44.3685 29.6981 42.2856 29.6981C40.2027 29.6981 38.5141 31.4552 38.5141 33.6226C38.5141 34.7206 38.9474 35.7132 39.6458 36.4255C38.394 37.3074 37.5713 38.799 37.5713 40.4905V44.415C37.5713 44.9569 37.9934 45.3962 38.5141 45.3962C39.0349 45.3962 39.457 44.9569 39.457 44.415V40.4905C39.457 38.8649 40.7234 37.5471 42.2856 37.5471C43.8477 37.5471 45.1141 38.8649 45.1141 40.4905V44.415C45.1141 44.9569 45.5363 45.3962 46.057 45.3962C46.5777 45.3962 46.9999 44.9569 46.9999 44.415V40.4905C46.9999 38.799 46.1771 37.3074 44.9254 36.4255Z" fill="#F7EA82"/>
<path fill-rule="evenodd" clip-rule="evenodd" d="M19.6572 35.5849C18.6157 35.5849 17.7714 34.7064 17.7714 33.6226C17.7714 32.5389 18.6157 31.6604 19.6572 31.6604C20.6986 31.6604 21.5429 32.5389 21.5429 33.6226C21.5429 34.7064 20.6986 35.5849 19.6572 35.5849ZM22.2969 36.4255C22.9953 35.7132 23.4286 34.7206 23.4286 33.6226C23.4286 31.4552 21.7401 29.6981 19.6572 29.6981C17.5743 29.6981 15.8857 31.4552 15.8857 33.6226C15.8857 34.7206 16.319 35.7132 17.0174 36.4255C15.7656 37.3074 14.9429 38.799 14.9429 40.4905V44.415C14.9429 44.9569 15.365 45.3962 15.8857 45.3962C16.4065 45.3962 16.8286 44.9569 16.8286 44.415V40.4905C16.8286 38.8649 18.095 37.5471 19.6572 37.5471C21.2193 37.5471 22.4857 38.8649 22.4857 40.4905V44.415C22.4857 44.9569 22.9079 45.3962 23.4286 45.3962C23.9493 45.3962 24.3714 44.9569 24.3714 44.415V40.4905C24.3714 38.799 23.5487 37.3074 22.2969 36.4255Z" fill="#F7EA82"/>
<path fill-rule="evenodd" clip-rule="evenodd" d="M27.2102 43.1863C27.002 43.191 26.8295 43.0191 26.825 42.8024L26.7814 40.717C26.7773 40.5205 26.9136 40.3511 27.1003 40.3207L29.0808 39.999C29.2866 39.9655 29.4795 40.112 29.5116 40.3262C29.5438 40.5403 29.403 40.741 29.1972 40.7745L28.0378 40.9628L28.991 41.7933C30.8275 43.3935 33.5629 43.1415 35.1007 41.2304L35.4639 40.7791C35.5976 40.6129 35.8355 40.591 35.9952 40.7301C36.1549 40.8693 36.1759 41.1168 36.0422 41.283L35.679 41.7343C33.8738 43.9778 30.6627 44.2736 28.5067 42.3951L27.5536 41.5646L27.5791 42.7854C27.5836 43.0021 27.4185 43.1815 27.2102 43.1863Z" fill="#F7EA82"/>
<path fill-rule="evenodd" clip-rule="evenodd" d="M19.3284 18.6694C19.4326 18.4817 19.6633 18.4174 19.8436 18.5257L21.5796 19.5687C21.7432 19.6671 21.8117 19.8762 21.7398 20.058L20.9767 21.9869C20.8975 22.1873 20.677 22.2829 20.4844 22.2004C20.2918 22.1179 20.2 21.8885 20.2792 21.6881L20.7259 20.559L19.5492 20.9761C17.2818 21.7799 16.0699 24.3442 16.8423 26.7036L17.0247 27.2608C17.0919 27.466 16.9865 27.689 16.7893 27.7588C16.5922 27.8287 16.3779 27.7191 16.3107 27.5139L16.1283 26.9567C15.2215 24.1869 16.6442 21.1767 19.3059 20.2332L20.4827 19.816L19.4665 19.2055C19.2861 19.0971 19.2243 18.8571 19.3284 18.6694Z" fill="#F7EA82"/>
<path fill-rule="evenodd" clip-rule="evenodd" d="M45.2503 25.0605C45.3567 25.2469 45.2977 25.4877 45.1187 25.5984L43.3954 26.6639C43.233 26.7644 43.0242 26.7242 42.907 26.57L41.6633 24.9341C41.5341 24.7641 41.5617 24.5173 41.7251 24.3828C41.8885 24.2484 42.1256 24.2772 42.2549 24.4471L42.9829 25.4048L43.2087 24.1327C43.6439 21.6816 42.0872 19.3275 39.7317 18.8747L39.1754 18.7677C38.9705 18.7283 38.8352 18.5236 38.873 18.3105C38.9109 18.0973 39.1076 17.9565 39.3124 17.9959L39.8687 18.1028C42.6338 18.6344 44.4613 21.3979 43.9505 24.2753L43.7246 25.5474L44.7334 24.9236C44.9124 24.8129 45.1439 24.8742 45.2503 25.0605Z" fill="#F7EA82"/>
</svg>
