<svg width="60" height="60" viewBox="0 0 60 60" fill="none" xmlns="http://www.w3.org/2000/svg">
<rect width="60" height="60" fill="white"/>
<rect x="-133.5" y="-2780.5" width="1439" height="5732" fill="#EBEAE6"/>
<rect x="-133.5" y="-2780.5" width="1439" height="5732" stroke="black"/>
<rect x="-34" y="-43" width="366" height="308" rx="20" fill="#F5F4F0"/>
<circle cx="30" cy="30" r="30" fill="#0E0E0E"/>
<path fill-rule="evenodd" clip-rule="evenodd" d="M20.5 36.25C20.8481 37.0115 21.6085 37.5 22.4458 37.5H38.2554C38.9573 37.5 39.6269 37.2049 40.1005 36.6869L40.5 36.25H39.6226H38.2554H38H23H22.4458H20.5ZM40.5 33.75C41.4908 33.75 42.3881 34.3352 42.7877 35.2419C43.1872 36.1486 43.0136 37.2057 42.345 37.9369L41.9456 38.3738C40.9983 39.4099 39.6592 40 38.2554 40H22.4458C20.6559 40 19.0281 38.9707 18.259 37.3594C18.0932 37.0251 18 36.6484 18 36.25C18 34.8693 19.1193 33.75 20.5 33.75V23.75C20.5 21.6789 22.1789 20 24.25 20H36.75C38.821 20 40.5 21.6789 40.5 23.75V33.75ZM23 33.75H25.5H35.5H38V31.25V23.75C38 23.0596 37.4403 22.5 36.75 22.5H24.25C23.5596 22.5 23 23.0596 23 23.75V31.25V33.75Z" fill="#F7EA82"/>
</svg>
