<svg width="60" height="60" viewBox="0 0 60 60" fill="none" xmlns="http://www.w3.org/2000/svg">
<rect width="60" height="60" fill="white"/>
<g clip-path="url(#clip0_0_1)">
<rect x="-572" y="-1507" width="1440" height="2932" fill="#EBEAE6"/>
<rect x="-34" y="-43" width="366" height="308" rx="20" fill="#F5F4F0"/>
<circle cx="30" cy="30" r="30" fill="#0E0E0E"/>
<path fill-rule="evenodd" clip-rule="evenodd" d="M32.499 25.3409C32.0672 24.8864 31.3672 24.8864 30.9354 25.3409L24.7372 31.8653C24.5835 32.0271 24.4785 32.233 24.4354 32.4572L24.022 34.6051C23.9484 34.9875 24.0618 35.3832 24.3238 35.6591C24.5859 35.935 24.9619 36.0543 25.3251 35.9768L27.3657 35.5417C27.5787 35.4963 27.7743 35.3858 27.9279 35.224L34.1262 28.6995C34.5579 28.2451 34.5579 27.5082 34.1262 27.0537L32.499 25.3409ZM25.415 33.2285L25.3439 33.5979L25.1056 34.8362L26.282 34.5854L26.6329 34.5105L25.415 33.2285ZM25.9921 32.1902L27.6193 33.903L31.8156 29.4859L30.1884 27.7731L25.9921 32.1902ZM33.3444 27.8766L32.5973 28.663L30.9702 26.9502L31.7172 26.1638L32.499 26.9867L32.5626 27.0537L33.3444 27.8766ZM34.8967 33.2123C34.97 33.2808 35 33.3713 35 33.4608C35 33.656 34.8423 33.7681 34.6659 33.8061C34.445 33.8537 34.2801 33.9454 34.1724 34.0675C34.0747 34.1782 34.0203 34.3182 34.0177 34.4831C34.3417 34.579 34.6606 34.8433 34.6606 35.2245V35.2413C34.6606 35.4554 34.5783 35.6458 34.4298 35.783C34.2811 35.9203 34.0706 36 33.8228 36C33.5444 36 33.3174 35.9012 33.1619 35.7203C33.0082 35.5415 32.93 35.2893 32.93 34.9894V34.9558C32.93 34.328 33.1371 33.8553 33.4935 33.5289C33.7827 33.2642 34.2147 33.1053 34.575 33.1053C34.7142 33.1053 34.8229 33.1434 34.8967 33.2123ZM32.5668 33.2123C32.64 33.2808 32.67 33.3713 32.67 33.4608C32.67 33.656 32.5124 33.7681 32.3359 33.8061C32.1151 33.8537 31.9501 33.9454 31.8424 34.0675C31.7448 34.1782 31.6903 34.3182 31.6877 34.4831C32.0118 34.579 32.3306 34.8433 32.3306 35.2245V35.2413C32.3306 35.4554 32.2483 35.6458 32.0998 35.783C31.9511 35.9203 31.7406 36 31.4928 36C31.2144 36 30.9874 35.9012 30.8319 35.7203C30.6782 35.5415 30.6 35.2893 30.6 34.9894V34.9558C30.6 34.328 30.8071 33.8553 31.1636 33.5289C31.4527 33.2642 31.8848 33.1053 32.245 33.1053C32.3843 33.1053 32.493 33.1434 32.5668 33.2123Z" fill="#F7EA82"/>
<path fill-rule="evenodd" clip-rule="evenodd" d="M34.125 24.4C35.6438 24.4 36.875 23.1464 36.875 21.6C37.6344 21.6 38.25 22.2268 38.25 23V39.8C38.25 40.5732 37.6344 41.2 36.875 41.2H23.125C22.3656 41.2 21.75 40.5732 21.75 39.8V23C21.75 22.2268 22.3656 21.6 23.125 21.6C23.125 23.1464 24.3562 24.4 25.875 24.4H34.125ZM23.3597 18.8C23.926 17.1687 25.4539 16 27.25 16H32.75C34.5461 16 36.074 17.1687 36.6403 18.8H36.875C39.1532 18.8 41 20.6804 41 23V39.8C41 42.1196 39.1532 44 36.875 44H23.125C20.8468 44 19 42.1196 19 39.8V23C19 20.6804 20.8468 18.8 23.125 18.8H23.3597ZM25.875 21.6H27.25H28.625H31.375H32.75H34.125V20.2C34.125 19.4268 33.5094 18.8 32.75 18.8H27.25C26.4906 18.8 25.875 19.4268 25.875 20.2V21.6Z" fill="#F7EA82"/>
</g>
<rect x="-571.5" y="-1506.5" width="1439" height="2931" stroke="black"/>
<defs>
<clipPath id="clip0_0_1">
<rect x="-572" y="-1507" width="1440" height="2932" fill="white"/>
</clipPath>
</defs>
</svg>
