<svg width="60" height="60" viewBox="0 0 60 60" fill="none" xmlns="http://www.w3.org/2000/svg">
<rect width="60" height="60" fill="white"/>
<g clip-path="url(#clip0_0_1)">
<rect x="-1009" y="-1507" width="1440" height="2932" fill="#EBEAE6"/>
<rect x="-34" y="-43" width="366" height="308" rx="20" fill="#F5F4F0"/>
<circle cx="30" cy="30" r="30" fill="#0E0E0E"/>
<path fill-rule="evenodd" clip-rule="evenodd" d="M24.2857 24V25.882C25.9055 24.6957 27.8754 24 30 24C35.5228 24 40 28.701 40 34.5C40 40.299 35.5228 45 30 45C24.4772 45 20 40.299 20 34.5C20 32.5205 20.5217 30.6689 21.4286 29.0886V24C21.4286 19.0294 25.2661 15 30 15C34.7339 15 38.5714 18.75 38.5714 22.5C38.5714 23.3284 37.9318 24 37.1429 24C36.3539 24 35.7143 23.3284 35.7143 22.5C35.7143 20.25 33.1559 18 30 18C26.8441 18 24.2857 20.6863 24.2857 24ZM24.2857 30H24.2852C23.3885 31.2535 22.8571 32.8116 22.8571 34.5C22.8571 38.6421 26.0551 42 30 42C33.9449 42 37.1429 38.6421 37.1429 34.5C37.1429 30.3579 33.9449 27 30 27C27.6634 27 25.5889 28.178 24.2857 29.9993V30ZM32.8571 34.5C32.8571 32.8431 31.578 31.5 30 31.5C28.422 31.5 27.1429 32.8431 27.1429 34.5C27.1429 36.1569 28.422 37.5 30 37.5C31.578 37.5 32.8571 36.1569 32.8571 34.5Z" fill="#F7EA82"/>
</g>
<rect x="-1008.5" y="-1506.5" width="1439" height="2931" stroke="black"/>
<defs>
<clipPath id="clip0_0_1">
<rect x="-1009" y="-1507" width="1440" height="2932" fill="white"/>
</clipPath>
</defs>
</svg>
