<svg width="60" height="60" viewBox="0 0 60 60" fill="none" xmlns="http://www.w3.org/2000/svg">
<rect width="60" height="60" fill="white"/>
<rect x="-855.5" y="-1468.5" width="1439" height="2262" fill="#EBEAE6"/>
<rect x="-855.5" y="-1468.5" width="1439" height="2262" stroke="black"/>
<rect x="-90" y="-34" width="240" height="213" rx="20" fill="#F5F4F0"/>
<circle cx="30" cy="30" r="30" fill="#0E0E0E"/>
<path fill-rule="evenodd" clip-rule="evenodd" d="M20 24V32C20 33.6569 21.3431 35 23 35H27L27 37H26C25.4477 37 25 37.4477 25 38C25 38.5523 25.4477 39 26 39H28H32H34C34.5523 39 35 38.5523 35 38C35 37.4477 34.5523 37 34 37H33L33 35L37 35C38.6569 35 40 33.6569 40 32V24C40 22.3431 38.6569 21 37 21H23C21.3431 21 20 22.3431 20 24ZM31 35H29L29 37H31L31 35ZM23 33C22.4477 33 22 32.5523 22 32L22 24C22 23.4477 22.4477 23 23 23L37 23C37.5523 23 38 23.4477 38 24V32C38 32.5523 37.5523 33 37 33L23 33Z" fill="#F7EA82"/>
</svg>
