<svg width="48" height="38" viewBox="0 0 48 38" fill="none" xmlns="http://www.w3.org/2000/svg">
<rect width="48" height="38" fill="white"/>
<rect x="-1062.5" y="-611.5" width="1439" height="4263" fill="#EBEAE6"/>
<rect x="-1062.5" y="-611.5" width="1439" height="4263" stroke="black"/>
<path d="M2.94468 -6.26739C3.43008 -2.17354 4.03227 0.334364 4.63057 0.298847C5.22886 0.263334 5.70769 -2.30356 6.01284 -6.43329C6.15138 -8.49491 6.26763 -10.9043 6.29894 -13.6764C6.29975 -14.3679 6.32435 -15.0207 6.30979 -15.8409C6.28321 -16.8052 6.06094 -17.7542 5.65629 -18.631C5.39125 -19.2302 5.00209 -19.7671 4.51418 -20.2066C4.02628 -20.6461 3.45063 -20.9785 2.8248 -21.1819C1.63764 -21.53 0.380266 -21.5682 -0.826068 -21.2929C-1.76824 -21.0871 -2.69174 -20.8045 -3.58723 -20.448C-4.37509 -20.148 -5.1424 -19.8234 -5.91295 -19.5127C-7.41948 -18.8699 -8.8633 -18.2122 -10.2024 -17.5493C-12.5425 -16.352 -14.8088 -15.0172 -16.9893 -13.552C-20.7354 -11.0379 -22.6832 -9.05759 -22.3616 -8.63198C-22.04 -8.20638 -19.4705 -9.30107 -15.5502 -11.1349C-13.5431 -12.0406 -11.1766 -13.1177 -8.50884 -14.2351C-7.15766 -14.7831 -5.80975 -15.3451 -4.30093 -15.9149C-2.90284 -16.4889 -1.47077 -16.9775 -0.0126999 -17.3779L0.141712 -17.4136C-1.37557 -15.6988 -2.79148 -13.898 -4.0989 -12.0202C-7.2532 -7.86346 -12.2468 -0.883886 -21.4151 9.81205C-26.0209 15.0989 -31.7135 21.4313 -38.9569 28.3433C-42.8514 32.046 -47.1327 35.3244 -51.728 38.1229C-56.8799 41.3567 -62.817 43.1424 -68.9082 43.2902C-75.6 43.171 -82.0199 40.6371 -86.9712 36.1608C-91.6951 31.9848 -95.3657 26.7639 -97.6872 20.9189C-91.1957 18.5092 -85.1638 15.0195 -79.8495 10.5992C-72.7102 4.71088 -67.2567 -2.94244 -64.0375 -11.5909C-62.5438 -15.9716 -62.1165 -20.6419 -62.7908 -25.2186C-63.1265 -27.5641 -63.8878 -29.8297 -65.0374 -31.9051C-66.2527 -34.1256 -68.006 -36.0097 -70.1385 -37.3868C-72.4473 -38.7756 -75.0546 -39.6001 -77.7463 -39.7927C-80.438 -39.9854 -83.1372 -39.5406 -85.6224 -38.4949C-90.1971 -36.4844 -94.1732 -33.3355 -97.1666 -29.3522C-98.62 -27.5218 -99.8939 -25.5575 -100.971 -23.4861C-101.516 -22.463 -101.963 -21.4035 -102.41 -20.344C-102.857 -19.2846 -103.181 -18.2683 -103.525 -17.1446C-104.872 -13.0215 -105.78 -8.76928 -106.235 -4.4578C-107.05 3.50631 -106.228 11.552 -103.818 19.1904C-104.225 19.2846 -104.632 19.3788 -105.025 19.4698C-113.126 21.521 -121.668 21.7479 -128.761 19.1978C-132.178 18.0485 -135.246 16.0563 -137.677 13.4078C-139.925 10.8747 -141.602 7.89316 -142.596 4.66304C-144.371 -1.47593 -145.039 -7.87877 -144.569 -14.2492C-144.347 -19.8958 -143.684 -25.5167 -142.589 -31.0616C-140.965 -39.1869 -138.478 -47.1179 -135.17 -54.7214C-132.799 -60.1381 -131.19 -62.996 -131.429 -63.1318C-131.668 -63.2677 -131.988 -62.4876 -132.825 -61.1322C-133.248 -60.4754 -133.727 -59.6145 -134.288 -58.6021C-134.85 -57.5896 -135.481 -56.4289 -136.143 -55.0845C-142.473 -42.3458 -146.201 -28.4867 -147.113 -14.3077C-147.75 -7.66444 -147.183 -0.961428 -145.437 5.48235C-144.402 9.08139 -142.611 12.4214 -140.183 15.2819C-137.458 18.3438 -134.002 20.6747 -130.132 22.0595C-122.159 25.0234 -112.925 24.8424 -104.177 22.7738C-103.672 22.6569 -103.166 22.54 -102.661 22.423C-100.095 29.0517 -95.9736 34.9753 -90.6397 39.7012C-87.6674 42.3094 -84.2717 44.3978 -80.5971 45.8776C-76.9415 47.3444 -73.0375 48.1032 -69.0954 48.1132C-65.3742 48.1081 -61.6783 47.5061 -58.1502 46.3303C-54.9475 45.2741 -51.873 43.867 -48.9832 42.1351C-44.0511 39.1285 -39.4604 35.6006 -35.2913 31.613C-29.0483 25.5509 -23.1367 19.1606 -17.5821 12.4694C-11.5052 5.27415 -5.93506 -2.32941 -0.911459 -10.2871C0.205143 -12.0584 1.22901 -13.8858 2.15604 -15.762C2.31288 -15.0924 2.27224 -14.3182 2.33217 -13.4938C2.50813 -10.7843 2.72352 -8.34868 2.96947 -6.2878L2.94468 -6.26739ZM-101.142 -4.25399C-100.745 -8.25115 -99.928 -12.1961 -98.7056 -16.0245C-98.3823 -16.9817 -98.0516 -17.9701 -97.6797 -18.9092C-97.32 -19.8385 -96.9108 -20.7481 -96.4538 -21.6342C-95.5468 -23.4535 -94.4651 -25.1814 -93.2237 -26.7938C-90.7937 -30.098 -87.5552 -32.7307 -83.815 -34.4422C-82.0165 -35.1855 -80.075 -35.5243 -78.1293 -35.4345C-76.2454 -35.3594 -74.4142 -34.7943 -72.8187 -33.7957C-71.2747 -32.7177 -69.9779 -31.3269 -69.0138 -29.7148C-68.0496 -28.1026 -67.44 -26.3057 -67.2251 -24.4424C-66.6313 -20.4863 -66.9665 -16.4473 -68.2043 -12.6414C-71.0988 -4.68032 -76.038 2.3897 -82.5313 7.86663C-87.3905 11.9781 -92.9128 15.245 -98.8657 17.5296C-101.101 10.4738 -101.886 3.04292 -101.172 -4.32052L-101.142 -4.25399ZM1.55572 -17.3144C1.55572 -17.3144 1.55572 -17.3144 1.53611 -17.3981C1.58309 -17.3769 1.62538 -17.3467 1.6605 -17.3092" fill="#0E0E0E" fill-opacity="0.5"/>
<rect x="-19" y="-86" width="241" height="145" rx="20" fill="white"/>
<rect width="48" height="38" rx="5" fill="#F8EB81"/>
<path d="M27 14C27 14.7956 26.6839 15.5587 26.1213 16.1213C25.5587 16.6839 24.7956 17 24 17C23.2044 17 22.4413 16.6839 21.8787 16.1213C21.3161 15.5587 21 14.7956 21 14C21 13.2044 21.3161 12.4413 21.8787 11.8787C22.4413 11.3161 23.2044 11 24 11C24.7956 11 25.5587 11.3161 26.1213 11.8787C26.6839 12.4413 27 13.2044 27 14ZM32 16C32 16.5304 31.7893 17.0391 31.4142 17.4142C31.0391 17.7893 30.5304 18 30 18C29.4696 18 28.9609 17.7893 28.5858 17.4142C28.2107 17.0391 28 16.5304 28 16C28 15.4696 28.2107 14.9609 28.5858 14.5858C28.9609 14.2107 29.4696 14 30 14C30.5304 14 31.0391 14.2107 31.4142 14.5858C31.7893 14.9609 32 15.4696 32 16ZM28 23C28 21.9391 27.5786 20.9217 26.8284 20.1716C26.0783 19.4214 25.0609 19 24 19C22.9391 19 21.9217 19.4214 21.1716 20.1716C20.4214 20.9217 20 21.9391 20 23V26H28V23ZM20 16C20 16.5304 19.7893 17.0391 19.4142 17.4142C19.0391 17.7893 18.5304 18 18 18C17.4696 18 16.9609 17.7893 16.5858 17.4142C16.2107 17.0391 16 16.5304 16 16C16 15.4696 16.2107 14.9609 16.5858 14.5858C16.9609 14.2107 17.4696 14 18 14C18.5304 14 19.0391 14.2107 19.4142 14.5858C19.7893 14.9609 20 15.4696 20 16ZM30 26V23C30.0014 21.9833 29.7433 20.983 29.25 20.094C29.6933 19.9805 30.1568 19.9698 30.6049 20.0627C31.053 20.1556 31.474 20.3496 31.8357 20.6299C32.1974 20.9102 32.4903 21.2695 32.6921 21.6802C32.8939 22.091 32.9992 22.5424 33 23V26H30ZM18.75 20.094C18.2567 20.983 17.9986 21.9833 18 23V26H15V23C14.9998 22.542 15.1045 22.0901 15.3059 21.6789C15.5074 21.2676 15.8004 20.9079 16.1624 20.6274C16.5244 20.3469 16.9458 20.153 17.3943 20.0605C17.8428 19.9681 18.3066 19.9795 18.75 20.094Z" fill="#0E0E0E"/>
</svg>
