<svg width="60" height="60" viewBox="0 0 60 60" fill="none" xmlns="http://www.w3.org/2000/svg">
<rect width="60" height="60" fill="white"/>
<rect x="-189.5" y="-1468.5" width="1439" height="2262" fill="#EBEAE6"/>
<rect x="-189.5" y="-1468.5" width="1439" height="2262" stroke="black"/>
<rect x="-90" y="-34" width="240" height="213" rx="20" fill="#F5F4F0"/>
<circle cx="30" cy="30" r="30" fill="#0E0E0E"/>
<path fill-rule="evenodd" clip-rule="evenodd" d="M32 20H24C21.7909 20 20 21.7909 20 24V32C20 34.2091 21.7909 36 24 36C24 38.2091 25.7909 40 28 40H31.5H36C38.2091 40 40 38.2091 40 36V28C40 25.7909 38.2091 24 36 24C36 21.7909 34.2091 20 32 20ZM36 26V32C36 34.2091 34.2091 36 32 36H26C26 37.1046 26.8954 38 28 38H31.5H36C37.1046 38 38 37.1046 38 36V28C38 26.8954 37.1046 26 36 26ZM22 24C22 22.8954 22.8954 22 24 22H32C33.1046 22 34 22.8954 34 24V32C34 33.1046 33.1046 34 32 34H24C22.8954 34 22 33.1046 22 32V24Z" fill="#F7EA82"/>
<path d="M31.5 26.4995C31.8254 26.0441 31.7274 25.4058 31.2812 25.0738C30.8349 24.7418 30.2094 24.8418 29.884 25.2971L27.7426 28.2937L26.976 27.3057C26.6332 26.8639 26.0043 26.7892 25.5713 27.139C25.1383 27.4888 25.0651 28.1306 25.4079 28.5724L26.9913 30.6132C27.1853 30.8632 27.4827 31.0063 27.7951 31C28.1076 30.9937 28.3992 30.8387 28.5833 30.581L31.5 26.4995Z" fill="#F7EA82"/>
</svg>
