<svg width="43" height="43" viewBox="0 0 43 43" fill="none" xmlns="http://www.w3.org/2000/svg">
<path fill-rule="evenodd" clip-rule="evenodd" d="M43 5.375V26.875C43 28.3005 42.4337 29.6677 41.4257 30.6757C40.4177 31.6837 39.0505 32.25 37.625 32.25H24.1875L10.75 43V32.25H5.375C3.94946 32.25 2.58231 31.6837 1.5743 30.6757C0.566293 29.6677 0 28.3005 0 26.875V5.375C0 3.94946 0.566293 2.58231 1.5743 1.5743C2.58231 0.566293 3.94946 0 5.375 0H37.625C39.0505 0 40.4177 0.566293 41.4257 1.5743C42.4337 2.58231 43 3.94946 43 5.375ZM13.4375 13.4375H8.0625V18.8125H13.4375V13.4375ZM18.8125 13.4375H24.1875V18.8125H18.8125V13.4375ZM34.9375 13.4375H29.5625V18.8125H34.9375V13.4375Z" fill="#18181B"/>
</svg>
