<svg width="49" height="16" viewBox="0 0 49 16" fill="none" xmlns="http://www.w3.org/2000/svg">
<path d="M1.91138 7C1.35909 7 0.911377 7.44772 0.911377 8C0.911377 8.55228 1.35909 9 1.91138 9V7ZM47.7959 8.70711C48.1864 8.31658 48.1864 7.68342 47.7959 7.29289L41.4319 0.928932C41.0414 0.538408 40.4083 0.538408 40.0177 0.928932C39.6272 1.31946 39.6272 1.95262 40.0177 2.34315L45.6746 8L40.0177 13.6569C39.6272 14.0474 39.6272 14.6805 40.0177 15.0711C40.4083 15.4616 41.0414 15.4616 41.4319 15.0711L47.7959 8.70711ZM1.91138 9H47.0888V7H1.91138V9Z" fill="black" fill-opacity="0.8"/>
</svg>
